<svg xmlns="http://www.w3.org/2000/svg" width="566.792" height="462.644" viewBox="0 0 566.792 462.644">
  <g id="Grupo_2064" data-name="Grupo 2064" transform="translate(-855.787 -70.594)">
    <path id="Trazado_2875" data-name="Trazado 2875" d="M1410.24,492.361c-32.315-26.162-46.419-68.857-54.927-109.86-5.342-25.749-9.288-52.311-21.316-75.634-13.781-26.724-39.83-48.376-69.543-50.208s-60.818,20.564-63.275,50.611c-2.909-21.939-5.92-44.247-14.987-64.39-5.692-12.643-13.637-24.111-22.065-35.076-10.386-13.516-21.68-26.494-35.18-36.811-44.2-33.778-111.153-32.587-154.157,2.743-13.643,11.208-25.016,25.547-31.4,42.121-8.315,21.582-7.79,45.833-2.645,68.407S955.409,328.1,964.87,349.2c-37.89-14.246-85,5.325-102.092,42.417s-1.661,86.229,33.453,106.5" transform="translate(0 35.126)" fill="#003d6a" opacity="0.06"/>
    <g id="Grupo_2070" data-name="Grupo 2070" transform="translate(877.576 100.74)">
      <path id="Trazado_2876" data-name="Trazado 2876" d="M922.875,91.2a52.2,52.2,0,0,1,41.865,83.374l12.008,17.036-22.96-6.162A52.195,52.195,0,1,1,922.875,91.2Z" transform="translate(-870.678 -91.197)" fill="#003d6a"/>
      <g id="Grupo_2069" data-name="Grupo 2069" transform="translate(19.151 34.899)">
        <g id="Grupo_2064-2" data-name="Grupo 2064">
          <path id="Trazado_2877" data-name="Trazado 2877" d="M884.29,116.156h61.451c.828,0,1.678.054,2.507,0,.035,0,.072,0,.108,0a.542.542,0,0,0,0-1.083H886.9c-.828,0-1.678-.056-2.505,0-.037,0-.073,0-.108,0a.542.542,0,0,0,0,1.083Z" transform="translate(-883.767 -115.048)" fill="#fff"/>
        </g>
        <g id="Grupo_2065" data-name="Grupo 2065" transform="translate(0 9.749)">
          <path id="Trazado_2878" data-name="Trazado 2878" d="M884.29,122.794h33.665a.542.542,0,0,0,0-1.083H884.29a.542.542,0,0,0,0,1.083Z" transform="translate(-883.767 -121.711)" fill="#fff"/>
        </g>
        <g id="Grupo_2066" data-name="Grupo 2066" transform="translate(0 19.474)">
          <path id="Trazado_2879" data-name="Trazado 2879" d="M884.29,129.44h45.963a.542.542,0,0,0,0-1.083H884.29a.542.542,0,0,0,0,1.083Z" transform="translate(-883.767 -128.357)" fill="#fff"/>
        </g>
        <g id="Grupo_2067" data-name="Grupo 2067" transform="translate(0 29.173)">
          <path id="Trazado_2880" data-name="Trazado 2880" d="M884.29,136.094h61.451c.828,0,1.678.054,2.507,0,.035,0,.072,0,.108,0a.542.542,0,0,0,0-1.083H886.9c-.828,0-1.678-.056-2.505,0-.037,0-.073,0-.108,0a.542.542,0,0,0,0,1.083Z" transform="translate(-883.767 -134.986)" fill="#fff"/>
        </g>
        <g id="Grupo_2068" data-name="Grupo 2068" transform="translate(0 38.898)">
          <path id="Trazado_2881" data-name="Trazado 2881" d="M884.29,142.738h61.451c.828,0,1.678.056,2.507,0,.035,0,.072,0,.108,0a.541.541,0,0,0,0-1.081H886.9c-.828,0-1.678-.056-2.505,0-.037,0-.073,0-.108,0a.541.541,0,0,0,0,1.081Z" transform="translate(-883.767 -141.632)" fill="#fff"/>
        </g>
      </g>
    </g>
    <g id="Grupo_2072" data-name="Grupo 2072" transform="translate(1037.932 70.594)">
      <path id="Trazado_2882" data-name="Trazado 2882" d="M1037.312,74.214a40.351,40.351,0,0,1,2.82,72.063l3.007,15.829-14.192-11.675a40.347,40.347,0,1,1,8.365-76.217Z" transform="translate(-980.271 -70.594)" fill="#003d6a"/>
      <g id="Grupo_2071" data-name="Grupo 2071" transform="translate(34.821 20.789)">
        <path id="Trazado_2883" data-name="Trazado 2883" d="M1009.818,104.759l.064-.14.022-.047a1.2,1.2,0,0,1,1.574-.591,8.766,8.766,0,0,0,7.249-15.963,8.531,8.531,0,0,0-8.693.881,1.232,1.232,0,0,1-1.678-.307,1.156,1.156,0,0,1,.309-1.678,11,11,0,0,1,11.068-1.108,11.179,11.179,0,0,1-8.086,20.807l-2.288,5.039a1.214,1.214,0,0,1-1.621.569,1.2,1.2,0,0,1-.591-1.574Zm-5.174,11.4a1.216,1.216,0,1,1,2.214,1.005l-.471,1.036a1.214,1.214,0,0,1-1.621.569,1.2,1.2,0,0,1-.593-1.574Z" transform="translate(-1004.069 -84.802)" fill="#fff"/>
      </g>
    </g>
    <path id="Trazado_2884" data-name="Trazado 2884" d="M1065.942,287.492l-90.866-.151c-4.872-.007-9.944.026-14.319,2.133-8.906,4.29-11.717,15.26-13,24.918-4.638,35.008-2.287,70.506.07,105.732h143.917" transform="translate(41.369 100.397)" fill="#68c3cd"/>
    <path id="Trazado_2885" data-name="Trazado 2885" d="M999.854,238.092c3.989,8.583,9.527,19.44,10.8,28.818s-2.051,17.512-8.3,24.615a47.794,47.794,0,0,0,41.41,9.991c.888-.211,1.9-.56,2.2-1.422a3.005,3.005,0,0,0-.656-2.416c-4.84-8.007-5.021-20.141-2.489-29.148" transform="translate(66.732 77.585)" fill="#fabda4"/>
    <g id="Grupo_2077" data-name="Grupo 2077" transform="translate(1332.829 431.449)">
      <g id="Grupo_2076" data-name="Grupo 2076" transform="translate(0 38.63)">
        <g id="Grupo_2075" data-name="Grupo 2075">
          <g id="Grupo_2073" data-name="Grupo 2073">
            <path id="Trazado_2886" data-name="Trazado 2886" d="M1184.2,353.8l7.047,45.413a1.319,1.319,0,0,0,1.3,1.116h28.9a1.318,1.318,0,0,0,1.3-1.12l6.881-45.324a3.507,3.507,0,0,0-3.468-4.032h-38.589A3.422,3.422,0,0,0,1184.2,353.8Z" transform="translate(-1184.157 -349.849)" fill="#cae05a"/>
          </g>
          <g id="Grupo_2074" data-name="Grupo 2074" transform="translate(38.078 14.593)">
            <path id="Trazado_2887" data-name="Trazado 2887" d="M1210.629,379.045a27.951,27.951,0,0,1-5.15-.5l.7-3.724c5.951,1.116,11.035.086,13.6-2.766a5.9,5.9,0,0,0,1.259-5.9c-1.37-4.627-10.544-4.6-13.967-4.19l-.45-3.763c.636-.077,15.5-1.754,18.052,6.879a9.765,9.765,0,0,1-2.081,9.519C1219.98,377.493,1215.694,379.045,1210.629,379.045Z" transform="translate(-1205.479 -358.02)" fill="#cae05a"/>
          </g>
        </g>
      </g>
    </g>
    <rect id="Rectángulo_398" data-name="Rectángulo 398" width="540.959" height="12.681" rx="4.333" transform="translate(881.62 520.556)" fill="#003d6a"/>
    <g id="Grupo_2078" data-name="Grupo 2078" transform="translate(1160.892 152.937)">
      <path id="Trazado_2889" data-name="Trazado 2889" d="M1105.951,126.87a40.351,40.351,0,0,0-32.363,64.45l-9.282,13.169,17.749-4.763a40.347,40.347,0,1,0,23.9-72.856Z" transform="translate(-1064.306 -126.87)" fill="#003d6a"/>
      <path id="Trazado_2890" data-name="Trazado 2890" d="M1108.278,152.289c-.553-17.7-8.535-18.319-13.634-16.385-5.156,1.958-5.977,7.241-2.7,14.193,1.883,3.987,6.985,4.309,11,3.86a55.753,55.753,0,0,1-1.874,21.509c-3.645-1.5-8.765-2.743-11.318.628-4.214,5.563-4.387,10.6-.015,13.64,3.507,2.439,9.043,3.8,12.93-4.334C1109.429,173.665,1109.17,159.972,1108.278,152.289Z" transform="translate(-1054.015 -123.034)" fill="#fff"/>
    </g>
    <g id="Grupo_2094" data-name="Grupo 2094" transform="translate(1010.747 226.224)">
      <g id="Grupo_2080" data-name="Grupo 2080" transform="translate(0 134.609)">
        <path id="Trazado_2891" data-name="Trazado 2891" d="M1186.8,374.278c-4.672-6.59-21.68-4.429-25.419-4s-15.365-1.721-15.365-1.721h0c-.29-.108-6.451.089-6.757.054-35.541-4.145-56.1-14.843-87.294-8.756l-22.372,16.436c34.994,10.418,71.745,8,107.83,5.276,5.566.105,47.2.862,49.377-.012C1189.132,380.615,1191.469,380.866,1186.8,374.278Z" transform="translate(-930.243 -227.697)" fill="#eba98e"/>
        <path id="Trazado_2892" data-name="Trazado 2892" d="M1046.583,278.19c7.354.546,13.807,5.259,18.632,10.836,11.791,13.631,15.725,32.113,20.595,49.465s12.063,35.633,27.384,45.124c1.6.994,3.37,1.972,4.205,3.662,1.307,2.647-.2,5.758-1.669,8.315-4.669,8.108-9.959,16.768-18.656,20.219-13.1,5.2-27.482-3.712-37.389-13.732-10.586-10.7-19.512-23.606-22.816-38.295-2.044-9.085-1.876-18.509-1.481-27.812q.751-17.69,2.539-35.316" transform="translate(-927.67 -264.674)" fill="#ddd"/>
        <path id="Trazado_2893" data-name="Trazado 2893" d="M1015.523,269.268c2.961,3.755,8.428,6.042,12.974,7.317,9.615,2.7,12.952.534,20.972-3.905,5.579,3.724,12.485,6.065,18.951,7.852a12.342,12.342,0,0,1,4.113,1.634,7.63,7.63,0,0,1,3.128,4.46c5.506,28.434,6.9,40.528,12.112,62.154,2.158,8.949-1.965,25.915-3.323,35.02-1.266,8.481,5.547,23.174,5.569,31.75-23,0-48.245-8.8-71.245-8.8a6.492,6.492,0,0,1-2.8-.414c-1.476-.7-2.195-2.356-2.787-3.876l-7.922-20.3c-3.965-10.163-7.963-20.45-9.38-31.267-.853-6.508-.757-13.106-1.447-19.633-1.463-13.83-6.41-27.006-10.4-40.329-.654-2.182-1.288-4.488-.776-6.707.892-3.866,3.87-4.359,7.423-6.128,7.7-3.831,17.139-5,24.835-8.83" transform="translate(-951.786 -268.807)" fill="#f5f5f5"/>
        <path id="Trazado_2894" data-name="Trazado 2894" d="M1142.868,376.652c-4.674-6.59-21.682-4.431-25.42-4s-15.365-1.721-15.365-1.721h0c-.288-.11-6.451.089-6.756.053-35.542-4.144-56.1-14.841-87.3-8.754l-26.974,22.368c37.026,3.443,76.347,2.068,112.432-.655,5.566.105,47.2.862,49.379-.012C1145.2,382.989,1147.54,383.24,1142.868,376.652Z" transform="translate(-952.722 -226.598)" fill="#fabda4"/>
        <g id="Grupo_2079" data-name="Grupo 2079" transform="translate(54.776)">
          <path id="Trazado_2895" data-name="Trazado 2895" d="M1029.268,278l-8.023,16.375L999.128,272.8l9.195-3.851A34.988,34.988,0,0,0,1029.268,278Z" transform="translate(-999.128 -268.953)" fill="#ddd"/>
          <path id="Trazado_2896" data-name="Trazado 2896" d="M1020.109,276.839l8.45,14.73,11.884-15.634s-6.627-2.42-8.173-4.539Z" transform="translate(-989.41 -267.821)" fill="#ddd"/>
          <circle id="Elipse_100" data-name="Elipse 100" cx="2.071" cy="2.071" r="2.071" transform="translate(29.39 19.605)" fill="#fff" opacity="0.58"/>
          <circle id="Elipse_101" data-name="Elipse 101" cx="2.071" cy="2.071" r="2.071" transform="translate(32.874 34.585)" fill="#fff" opacity="0.58"/>
          <circle id="Elipse_102" data-name="Elipse 102" cx="2.071" cy="2.071" r="2.071" transform="translate(37.992 52.399)" fill="#fff" opacity="0.58"/>
          <circle id="Elipse_103" data-name="Elipse 103" cx="2.071" cy="2.071" r="2.071" transform="translate(40.059 67.693)" fill="#fff" opacity="0.58"/>
          <circle id="Elipse_104" data-name="Elipse 104" cx="2.071" cy="2.071" r="2.071" transform="translate(42.13 85.654)" fill="#fff" opacity="0.58"/>
          <circle id="Elipse_105" data-name="Elipse 105" cx="2.071" cy="2.071" r="2.071" transform="translate(43.273 104.306)" fill="#fff" opacity="0.58"/>
          <circle id="Elipse_106" data-name="Elipse 106" cx="2.071" cy="2.071" r="2.071" transform="translate(43.273 123.166)" fill="#fff" opacity="0.58"/>
        </g>
        <path id="Trazado_2897" data-name="Trazado 2897" d="M994.523,277.963c11.944,7.391,14.386,29.431,16.212,43.359s4.177,19.627,4.147,33.674,1.909,28.768,10.059,40.209c.629.885,1.332,1.9,1.09,2.962a3.688,3.688,0,0,1-.891,1.482,164.965,164.965,0,0,1-26.121,24.816c-1.735,1.32-3.681,2.666-5.86,2.58a24.571,24.571,0,0,1-10.02-3.177c-12.8-8.994-20.69-20.788-21.418-41.348-.235-6.671,1.016-28.6,1.893-35.219,2.575-19.418,5.705-39.256,15.173-56.4,3.433-6.216,8.645-12.563,15.735-12.932" transform="translate(-961.692 -264.78)" fill="#ddd"/>
      </g>
      <g id="Grupo_2093" data-name="Grupo 2093" transform="translate(28.8)">
        <circle id="Elipse_107" data-name="Elipse 107" cx="16.636" cy="16.636" r="16.636" transform="translate(68.107 66.02)" fill="#68c3cd"/>
        <path id="Trazado_2898" data-name="Trazado 2898" d="M1003.3,249.786c4.6,9.264,11.9,17.209,22.1,18.932,2.833.478,8.359,2.047,11.72,1.7,1.431-.148,4.536.222,4.646-1.212.051-.664-1.7-1.263-2.026-1.882a27.911,27.911,0,0,0-2.492-4.587,97.317,97.317,0,0,0-31.555-25.751" transform="translate(-971.221 -149.152)" fill="#eba98e"/>
        <path id="Trazado_2899" data-name="Trazado 2899" d="M1009.517,244.843c-1.248-1.978-2.416-3.506-3.757-5.421-2.37-3.386-4.337-3.993-6.716-4.079-2.628-.1-4.562,3.417-4.286,6.776a12.033,12.033,0,0,0,4.527,8.134c2.944,2.363,10.054,5.161,12.238,1.784" transform="translate(-975.188 -149.913)" fill="#fac4c4"/>
        <g id="Grupo_2086" data-name="Grupo 2086" transform="translate(32.076 41.489)">
          <path id="Trazado_2900" data-name="Trazado 2900" d="M1033.037,206.418c6.839-3.128,15.274.755,19.614,6.9s6.2,15.653,5.472,23.01c-.936,9.442,1.918,13.384.948,22.146-.7,6.271-3,11-6.944,17.084-1.646,2.54-3.363,8.223-8.561,9.411-3.378.773-9.382-2.442-12.639-3.632-9.656-3.525-17.83-7.973-22.633-17.061s-5.586-20.39-1.33-29.745" transform="translate(-1002.884 -205.312)" fill="#fabda4"/>
          <g id="Grupo_2085" data-name="Grupo 2085" transform="translate(14.462 26.17)">
            <path id="Trazado_2904" data-name="Trazado 2904" d="M1024.356,246.39c5.529-.629,11.706-1.247,17.234-1.876.133-.015.65-.06.718-.057,0,0-.162.544-.236.777a14.5,14.5,0,0,1-2.089,4.52,8.572,8.572,0,0,1-4.988,3.14c-2.069.509-4.546-.457-6.273-1.7a15.59,15.59,0,0,1-4.366-4.8" transform="translate(-1008.003 -213.35)" fill="#fff"/>
          </g>
        </g>
        <g id="Grupo_2088" data-name="Grupo 2088">
          <path id="Trazado_2908" data-name="Trazado 2908" d="M1045.9,188.793c-5.229-4.95-12.538-7.991-20.047-10.136-4.272-1.22-8.851-2.192-13.419-1.432a28.778,28.778,0,0,0-10.974,4.814c-11.585,7.68-20.28,19.466-20.082,31.541.123,7.506,4.372,14.768,10.975,19.26-1.794,8.337-1.779,17.236,1.7,24.981,3.932,8.738,12.149,14.727,19.673,20.662-1.706-6.3-.717-11.41.985-17.708s3.946-12.519,4.422-19.025a26.2,26.2,0,0,0-1.62-11.536l34.366-21.262C1054.062,202.219,1051.129,193.741,1045.9,188.793Z" transform="translate(-981.375 -176.957)" fill="#003d6a"/>
          <path id="Trazado_2909" data-name="Trazado 2909" d="M1070.033,253.014a93.383,93.383,0,0,0-4.237-26.18,36.721,36.721,0,0,0-10.652-21.05,31.2,31.2,0,0,0-25.866-8.4c-3.667.553-7.389,1.889-9.988,4.748a11.141,11.141,0,0,0-2.83,7.178l-6.384-10.866a22.251,22.251,0,0,0-12.068,14.344,28.423,28.423,0,0,0,1.637,18.919c1.1,2.5,2.5,4.856,3.456,7.411,1.636,4.385,1.865,9.144,2.527,13.776a73.486,73.486,0,0,0,14.031,33.734c-5.939-13.557-10.695-28.813-6.394-42.974,1.939-6.385,5.638-12.218,7.764-18.485a43.793,43.793,0,0,1-1.456,12.458l25.189-1.421a6.344,6.344,0,0,0,2.106-.361c2.871-1.193,2.935-5.513,2.489-8.814q2.267,3.894,4.537,7.786a2.813,2.813,0,0,0,.974,1.14,2.455,2.455,0,0,0,1.5.116c1.747-.236,3.49-.509,5.232-.775a40.237,40.237,0,0,1,2.255,8.766,94.97,94.97,0,0,1-1.362,36.773C1067.775,272.65,1070.018,262.754,1070.033,253.014Z" transform="translate(-974.104 -167.644)" fill="#003d6a"/>
        </g>
        <g id="Grupo_2090" data-name="Grupo 2090" transform="translate(24.749 88.858)">
          <g id="Grupo_2089" data-name="Grupo 2089">
            <path id="Trazado_2912" data-name="Trazado 2912" d="M1027.569,258.855c-20.189-3.579-29.184-20.306-29.28-20.491l1.3-.679c.1.193,10.46,19.379,33.911,20.34l-.06,1.46A43.609,43.609,0,0,1,1027.569,258.855Z" transform="translate(-998.289 -237.685)" fill="#ddd"/>
          </g>
          <ellipse id="Elipse_110" data-name="Elipse 110" cx="3.424" cy="2.696" rx="3.424" ry="2.696" transform="translate(33.415 18.072)" fill="#ddd"/>
        </g>
        <g id="Grupo_2092" data-name="Grupo 2092" transform="translate(12.289 30.653)">
          <ellipse id="Elipse_111" data-name="Elipse 111" cx="14.949" cy="16.636" rx="14.949" ry="16.636" transform="translate(0 37.6)" fill="#53b2bc"/>
          <g id="Grupo_2091" data-name="Grupo 2091" transform="translate(14.912)">
            <path id="Trazado_2913" data-name="Trazado 2913" d="M1068.353,245.646c-3.2-37.727-25.768-44.331-27.591-44.371-34.031-.756-37.066,36.022-37.206,37.609l-3.591-.315c.037-.423,2.018-42.84,39.459-40.574.258.012,28.2,2.227,31.07,49.463Z" transform="translate(-999.965 -197.906)" fill="#53b2bc"/>
          </g>
          <ellipse id="Elipse_112" data-name="Elipse 112" cx="13.227" cy="16.636" rx="13.227" ry="16.636" transform="translate(0 37.6)" fill="#68c3cd"/>
        </g>
      </g>
    </g>
    <g id="Grupo_2095" data-name="Grupo 2095" transform="translate(1108.975 352.926)">
      <rect id="Rectángulo_399" data-name="Rectángulo 399" width="190.718" height="129.434" rx="6.384" transform="translate(44.909)" fill="#d5004f"/>
      <path id="Trazado_2915" data-name="Trazado 2915" d="M1109.776,308.339H1141.8v63.752" transform="translate(-991.327 -242.803)" fill="#8282d8"/>
      <path id="Trazado_2916" data-name="Trazado 2916" d="M1158.48,412.024h-36.494a2.893,2.893,0,0,1-2.88-2.625l-9.326-100.059a2.892,2.892,0,0,1,2.88-3.16H1149.7a2.893,2.893,0,0,1,2.881,2.64l8.776,100.059A2.893,2.893,0,0,1,1158.48,412.024Z" transform="translate(-991.331 -243.804)" fill="#b7094a"/>
      <rect id="Rectángulo_400" data-name="Rectángulo 400" width="199.564" height="5.687" rx="1.638" transform="translate(0 162.533)" fill="#d5004f"/>
    </g>
  </g>
</svg>
